<?xml version="1.0" encoding="utf-8"?>
<!-- Generator: Adobe Illustrator 25.2.1, SVG Export Plug-In . SVG Version: 6.00 Build 0)  -->
<svg version="1.1" id="layer" xmlns="http://www.w3.org/2000/svg" xmlns:xlink="http://www.w3.org/1999/xlink" x="0px" y="0px"
	 viewBox="0 0 652 652" style="enable-background:new 0 0 652 652;" xml:space="preserve">
<path d="M615.7,246.3h1.2l1.8,3.2h0.8l-2-3.3c1,0,1.7-0.7,1.7-1.7v-0.1c0-0.5-0.2-1-0.6-1.3c-0.5-0.3-1-0.5-1.6-0.4h-2v6.9h0.7
	V246.3z M615.7,243.3h1.2c0.3-0.1,0.5-0.1,0.8,0l0.5,0.3c0.2,0.1,0.3,0.2,0.3,0.3s0,0.3,0,0.4c0,0.2,0,0.3,0,0.5
	c0,0.1-0.1,0.3-0.3,0.3c-0.1,0.1-0.3,0.2-0.5,0.2c-0.3,0.1-0.5,0.1-0.8,0h-1.2V243.3z M622.4,246.1c0,2.8-2.2,5-5,5
	c-2.7,0-5-2.2-5-5s2.2-5,5-5S622.4,243.3,622.4,246.1 M623,246.1c0-3.2-2.5-5.7-5.6-5.8c-3.1,0-5.7,2.5-5.7,5.7s2.5,5.7,5.6,5.8h0.1
	C620.4,251.7,623,249.2,623,246.1 M506.5,367.6c-0.4-1-1.4-1.6-2.5-1.4c-1.7-0.1-3.4,1-3.9,2.7c-0.4,1.6,0.6,2.1,1.9,2.4
	c1.3,0.4,1.9,0.3,1.7,1.3c-0.3,1-1.2,1-2,1s-1.4-0.3-1.8-1l-1.5,1c0.5,1.1,1.6,1.7,2.8,1.5c1.8,0.1,3.6-1,4.2-2.7
	c0.4-1.6-0.5-2.1-1.8-2.5c-1.3-0.3-2.1-0.3-1.8-1.3c0.3-1,1-0.9,1.7-0.9c0.6,0,1.2,0.3,1.5,0.9L506.5,367.6z M492.3,373.6
	c-1.7,0-2.5-1.2-2-3c0.4-1.7,1.9-2.9,3.6-3c1.7,0,2.4,1.2,2,3S494,373.6,492.3,373.6 M500,361.3h-1.6l-1.7,6.3l0,0
	c-0.5-0.9-1.5-1.5-2.5-1.4c-2.6,0.1-4.9,1.9-5.5,4.5c-0.7,1.6,0,3.5,1.6,4.2c0.5,0.2,1,0.3,1.5,0.3c1.2,0,2.4-0.6,3.3-1.4l0,0
	l-0.3,1.2h1.6L500,361.3z M480.3,370c0.5-1.4,1.8-2.4,3.3-2.5c1.6,0,2.1,1.1,1.8,2.5H480.3z M486.8,371.3v-0.6
	c0.6-2.1,0-4.5-2.9-4.5c-2.6,0.1-4.9,1.9-5.6,4.5c-0.6,2.6,0.5,4.5,3.2,4.5c1.6,0,3.1-0.8,4.2-1.9l-1-0.9c-0.7,0.8-1.6,1.2-2.6,1.3
	c-1.5,0-2.6-1-2.2-2.5L486.8,371.3z M470.3,370c0.5-1.4,1.8-2.4,3.3-2.5c1.6,0,2.1,1.1,1.8,2.5H470.3z M476.8,371.3v-0.6
	c0.6-2.1,0-4.5-2.9-4.5c-2.6,0.1-4.9,1.9-5.6,4.5c-0.6,2.6,0.5,4.5,3.2,4.5c1.6,0,3.1-0.8,4.2-1.9l-1-0.9c-0.7,0.8-1.6,1.2-2.6,1.3
	c-1.5,0-2.6-1-2.2-2.5L476.8,371.3z M457.8,374.9h1.6l1.1-4.4c0.3-1.6,1.6-2.7,3.1-2.8c1,0,1.8,0.6,1.3,2.2l-1.3,5h1.6l1.5-5.5
	c0.6-2.3-0.5-3.3-2.2-3.3c-1.2,0-2.4,0.6-3.2,1.5l0,0l0.3-1.3H460L457.8,374.9z M447.8,367.7c1.7,0,2.4,1.2,2,3
	c-0.3,1.7-1.8,2.9-3.5,2.9s-2.5-1.1-2-2.9C444.5,368.9,446,367.7,447.8,367.7 M452.5,366.4h-1.6l-0.4,1.2l0,0
	c-0.5-0.9-1.5-1.5-2.6-1.4c-2.6,0.1-4.9,1.9-5.5,4.5c-0.7,1.6,0.1,3.5,1.7,4.1c0.5,0.2,1,0.3,1.5,0.2c1.3,0,2.5-0.5,3.3-1.5l0,0
	l-0.4,1.2c-0.4,1.8-2,3-3.8,3c-1.1,0.1-2.1-0.5-2.7-1.3l-1.4,1.3c0.9,1.1,2.3,1.7,3.7,1.5c2.7,0,5.1-1.8,5.8-4.4L452.5,366.4z
	 M431.7,374.9h1.6l1.2-4.4c0.2-1.6,1.5-2.7,3.1-2.8c1,0,1.8,0.6,1.3,2.2l-1.3,5h1.6l1.4-5.5c0.6-2.3-0.5-3.3-2.2-3.3
	c-1.3,0-2.4,0.6-3.2,1.5l0,0l0.4-1.3H434L431.7,374.9z M430.2,363.3c-0.1,0.5,0.1,1,0.6,1.1c0.1,0,0.2,0.1,0.3,0
	c0.7,0,1.3-0.5,1.5-1.1c0.2-0.5-0.1-1-0.5-1.1c-0.1,0-0.2,0-0.3,0C431.1,362.2,430.5,362.6,430.2,363.3 M427.5,374.9h1.6l2.3-8.5
	h-1.6L427.5,374.9z M415.5,374.9h1.7l3.7-6.4l0,0l0.5,6.4h1.6l5-8.5h-1.7l-3.5,6.4l0,0l-0.4-6.4h-1.7l-3.7,6.4l0,0v-6.4h-1.8
	L415.5,374.9z M403.8,370.7c-0.6,1.7,0.3,3.7,2,4.3c0.4,0.1,0.9,0.2,1.4,0.2c2.7-0.1,5-1.9,5.7-4.5c0.6-1.7-0.3-3.7-2-4.3
	c-0.4-0.1-0.9-0.2-1.4-0.2C406.9,366.3,404.5,368.1,403.8,370.7 M405.5,370.7c0.4-1.7,1.8-2.9,3.6-3c1.7,0,2.4,1.2,2,3
	c-0.3,1.7-1.8,2.9-3.6,3C405.8,373.6,405.1,372.4,405.5,370.7 M396.7,374.9h1.6l1.1-4.3c0.2-1.6,1.6-2.8,3.2-2.8h0.8l0.5-1.7
	c-0.2-0.1-0.5-0.1-0.7,0c-1.2,0-2.2,0.6-2.9,1.5l0,0l0.4-1.3h-1.6L396.7,374.9z M391.7,367.7c1.7,0,2.5,1.2,2,3
	c-0.4,1.7-1.9,2.9-3.6,2.9s-2.5-1.1-2-2.9C388.5,369,390,367.7,391.7,367.7 M396.7,366.4h-1.6l-0.4,1.2l0,0
	c-0.5-0.9-1.5-1.5-2.5-1.4c-2.6,0.1-4.9,1.9-5.5,4.5c-0.7,1.6,0.1,3.5,1.7,4.1c0.4,0.2,1,0.3,1.4,0.2c1.3,0,2.5-0.5,3.3-1.5l0,0
	l-0.3,1.2c-0.4,1.8-2,3.1-3.9,3c-1.1,0.1-2.1-0.5-2.6-1.3l-1.4,1.3c0.9,1.1,2.3,1.7,3.7,1.5c2.7,0,5.1-1.8,5.8-4.4L396.7,366.4z
	 M374.2,374.9h1.4l1.1-4.3c0.2-1.6,1.5-2.8,3.1-2.8h0.8l0.5-1.7c-0.2-0.1-0.5-0.1-0.7,0c-1.2,0-2.2,0.6-2.9,1.5l0,0l0.4-1.3h-1.6
	L374.2,374.9z M374.2,366.4h-1.6l-1.2,4.4c-0.3,1.6-1.6,2.7-3.1,2.8c-1,0-1.7-0.6-1.3-2.1l1.3-5h-1.6l-1.4,5.5
	c-0.6,2.2,0.6,3.3,2.2,3.3c1.2,0,2.4-0.6,3.2-1.5l0,0l-0.3,1.3h1.6L374.2,366.4z M354.2,370.7c-0.6,1.7,0.3,3.7,2,4.3
	c0.4,0.1,0.9,0.2,1.4,0.2c2.7-0.1,5-1.9,5.7-4.5c0.7-1.7-0.2-3.6-1.9-4.3c-0.4-0.2-0.9-0.3-1.4-0.2
	C357.3,366.3,355,368.1,354.2,370.7 M356,370.7c0.4-1.7,1.8-2.9,3.6-3c1.7,0,2.4,1.2,2,3c-0.4,1.7-1.8,2.9-3.6,3
	C356.2,373.6,355.5,372.4,356,370.7 M347,375l-0.9,1.3c-0.5,0.8-1,1.4-2,1.4c-0.3,0.1-0.6,0.1-0.9,0l-0.6,1.5
	c0.5,0.2,0.9,0.3,1.4,0.3c1.8,0,2.6-1,3.5-2.5l6.8-10.4h-1.7l-4.2,6.7l0,0l-0.8-6.7h-2L347,375z M332.9,375h1.6l1.1-4.3
	c0.2-1.6,1.6-2.8,3.2-2.8h0.7l0.6-1.7c-0.2,0-0.5,0-0.7,0c-1.2,0.1-2.3,0.6-3,1.5l0,0l0.3-1.3h-1.6L332.9,375z M322.9,370.7
	c-0.7,1.7,0.2,3.6,1.9,4.3c0.5,0.2,0.9,0.3,1.4,0.2c2.7-0.1,5-1.9,5.7-4.5c0.6-1.7-0.2-3.7-2-4.3c-0.4-0.1-0.9-0.2-1.4-0.2
	C325.9,366.3,323.6,368.1,322.9,370.7 M324.6,370.7c0.4-1.7,1.8-2.9,3.6-3c1.7,0,2.5,1.2,2,3c-0.4,1.7-1.8,2.9-3.6,3
	C324.9,373.7,324.1,372.5,324.6,370.7 M316.8,375h1.6l1.9-7.1h1.9l0.4-1.4h-1.9l0.5-1.9c0.3-1.2,0.7-1.9,1.9-1.9c0.3,0,0.6,0,0.8,0
	l0.6-1.4c-0.4-0.1-0.8-0.1-1.2,0c-2.1,0-3.2,1.1-3.8,3.4l-0.5,1.9h-1.8l-0.4,1.4h1.8L316.8,375z M546.1,350.4l39-94.8h23.3l-40,94.8
	H546.1z M509.2,350.4l38.8-94.8h22.6l-39.1,94.8H509.2z M457.8,324.9c-0.3,1.3-0.4,2.6-0.4,3.9c0,1.7,0.1,3.3,0.4,5
	c1.1,6.4,16.1,6.1,16.1,6.1c10,0,27.3-0.9,27.3-0.9l-8.4,11.2c-9.3,1.6-29.3,2.4-29.3,2.4c-32.2-0.3-27.8-21.2-27.8-21.2
	c2.1-17.9,13.3-33.5,29.7-41c25.8-11.6,38.9-0.8,38.9-0.8c15,9.4,2.3,35.6,2.3,35.6L457.8,324.9z M460.7,315.6l27.5,0.4
	c3-4.8,3.8-10.6,2.2-16c0,0-3.8-9.4-18.3-0.4c-4.6,2.9-8.2,7.1-10.4,12.1C461.3,313,461,314.3,460.7,315.6 M335.3,285.8l22.7-0.4
	l-9.1,45.2l34.4-44.6h19l-5,45.7l30.8-45.7h20l-48.8,64.5l-20.5-0.8l4-42.3l-33,43.1l-20.9-0.7L335.3,285.8z M224.6,345.1l23.1-56
	l13.9-2.9c10.7-1.8,21.5-2.1,32.3-1.1l-10.3,13.6c-11-3.3-16.1,0.7-16.1,0.7l-20.9,50.2L224.6,345.1z M170.7,348.8
	c-2.2,0.4,24.5-58.9,24.5-58.9s25.3-7.7,45.4-4.8l-10,13.6c-5.1-1-10.3-0.9-15.4,0.3l-19.4,45.2l-25.3,4.4 M132.6,346.5l11.7-26
	c-16.5,0.9-23.2,1.5-28.7,14.6c-3.9,9.3-1.8,15.9,8,15.1c3.2-0.6,6.2-1.8,9-3.5 M152.2,355.1c-7.2,2.2-33.5,12.7-45,11
	c-20-2.9-21.2-17.8-15.4-31.7c8-18.9,32.9-23.9,56.4-22.8l1.6-3.9c3.9-9.3-3.7-8.5-12.4-9.7c-7.1-1-16.7,2.4-22.2,4l-0.7-11
	c5.7-1.6,25.5-9.2,37.2-7.5c15.3,2.1,27.4,9.3,19.5,27.8L152.2,355.1z M136.8,266.1l-3.5-1.8c-10.6-6.2-26.7-2.3-26.7-2.3
	c-18.5,2.8-35,33.3-35,33.3c-12.3,22.1-15,55.8-15,55.8C53.1,390.3,83,389.4,83,389.4c15.4,2.6,39-13.3,53-20.6
	c18.5-9.4,38.5-15.5,59-18c20-1.6,34.4,2.2,56.4,5s27-12.7,29.1-17.7s21.4-51.6,21.4-51.6h24l-20,49.9c-7.7,20.8-15,25.8-15,25.8
	c-16.5,14.6-54.1,6.1-54.1,6.1c-8-0.8-16.1-1-24.2-0.9c-19.3,0.8-38.3,5.5-55.7,14c-15,5.9-42.3,20.6-42.3,20.6
	c-42,20.1-65.4,7.2-65.4,7.2c-32.5-14.5-25.9-57.3-25.3-62.1c3-23.3,11.1-45.7,23.6-65.6C67,250.7,90.9,243,90.9,243
	c38.8-13.8,57.9,4.4,57.9,4.4L136.8,266.1z M344.5,247.1h2.2c1.8,0.2,3.6,0.6,5.4,1.2c4.1,1.4,7.1,4.9,7.8,9.1
	c0.6,4.2-0.9,8.5-4,11.3c-2.7,2.7-5.8,5-9.3,6.7c-13.5,4.9-28.3,5.2-42,0.8l-1.7-0.6l0.3-1.8c1.5-10,7-38.3,26.5-47.5h0.3
	c6.2-1.8,15,0,15.9,8.4c0.5,4.1,0,8.3-1.4,12.2 M335.7,252.6c0.8-2.2,1.1-4.5,0.8-6.9c-0.6-3.6-3.9-6-7.5-5.5
	c-0.5,0.1-1,0.2-1.5,0.4c-11.2,5-14.3,21.2-15,27v1l1,0.4c7.7,2.5,16.1,2.4,23.8-0.4c1.9-1,3.7-2.2,5.2-3.8c1.8-1.6,2.6-4,2.3-6.4
	c-0.5-2.3-2.2-4.3-4.4-5c-1-0.3-2-0.5-3-0.6L335.7,252.6z"/>
</svg>
