<?xml version="1.0" encoding="utf-8"?>
<!-- Generator: Adobe Illustrator 25.2.1, SVG Export Plug-In . SVG Version: 6.00 Build 0)  -->
<svg version="1.1" id="layer" xmlns="http://www.w3.org/2000/svg" xmlns:xlink="http://www.w3.org/1999/xlink" x="0px" y="0px"
	 viewBox="0 0 652 652" style="enable-background:new 0 0 652 652;" xml:space="preserve">
<path d="M111.6,256.6v15.6l18,15.3v-30.9H111.6z M129.7,385.4v-59.5l-18-15.2v74.7L129.7,385.4L129.7,385.4z"/>
<path d="M84.8,385.4v-82.2L42.1,334v51.4H21.5V323l73.4-56.1l73.4,56.1v62.3h-20.6V334L105,303.2v82.2L84.8,385.4L84.8,385.4z
	 M299.6,279.8h5.2v51.5h-5.2V279.8z M392.3,279.8v51.5h-7.8v-23h-30.6v23H346v-51.5h7.9v22h30.5v-21.9h7.9V279.8z M409.5,305.3
	c0,2.5,0.4,4.9,1.3,7.2c0.8,2.3,2,4.4,3.6,6.3c1.5,1.8,3.4,3.2,5.5,4.3c2.2,1.1,4.7,1.6,7.1,1.6c2.5,0,5-0.5,7.3-1.7
	c2.1-1.1,4-2.6,5.5-4.4c1.5-1.9,2.7-4,3.5-6.3c0.8-2.2,1.2-4.6,1.2-7c0-2.5-0.4-4.9-1.3-7.2c-0.8-2.2-2.1-4.3-3.6-6.1
	c-1.6-1.7-3.4-3.2-5.5-4.2c-2.2-1.1-4.6-1.6-7.1-1.6s-5,0.5-7.3,1.6c-2.1,1.1-4,2.6-5.5,4.4c-1.5,1.9-2.7,4-3.5,6.3
	c-0.8,2.2-1.2,4.6-1.2,7 M427.1,331.2c-3.4,0.1-6.8-0.6-10-2.1c-2.9-1.4-5.6-3.4-7.7-5.8c-2.2-2.4-3.9-5.3-5-8.3
	c-1.2-3-1.8-6.2-1.8-9.5s0.6-6.6,1.9-9.7c1.2-3,3-5.8,5.2-8.2c2.2-2.4,4.9-4.3,7.8-5.7c3-1.4,6.4-2.1,9.7-2.1c3.5,0,6.9,0.7,10,2.3
	c2.9,1.4,5.5,3.5,7.7,5.9c2.2,2.5,3.8,5.3,5,8.3s1.8,6.2,1.8,9.4c0,3.3-0.6,6.6-1.9,9.7c-1.2,3-3,5.8-5.2,8.2
	c-2.2,2.4-4.8,4.3-7.8,5.7c-3,1.4-6.4,2.1-9.7,2.1 M511,331.3v-37.6l-17.4,28.4h-4.4l-17.4-28.4v37.5h-7.4v-51.5h7.1l19.9,32.7
	l20-32.7h7.1v51.5H511V331.3z M572.6,324.9v6.4h-41.1l-0.1-51.5h40.5v6.4h-32.3v15.6h28.2l-0.1,6.2h-28v16.7h32.9V324.9z
	 M284.8,292.7h4.5L268.1,321l-4.6-0.1L284.8,292.7z M245.8,331.3v-37.5l-17.4,28.4h-4.3l-17.4-28.4v37.6h-7.5v-51.5h7.1l19.9,32.6
	l20-32.6h7.1v51.5h-7.5V331.3z M615.7,292.2c-1.6-1.9-3.6-3.4-5.8-4.5c-2.7-1.3-5.7-2-8.7-2c-3.4-0.2-6.7,1-9.2,3.3
	c-2.2,2.2-2.7,5.6-1.4,8.4c1.4,1.6,3.2,2.8,5.3,3.3c3.5,1.2,12.3,2.9,14.5,3.7c2.1,0.7,4.2,1.6,6,2.8c1.6,1.1,2.9,2.6,3.8,4.3
	c0.9,1.8,1.3,3.8,1.2,5.8c0,2.1-0.5,4.3-1.4,6.2c-1,1.8-2.3,3.3-4,4.4c-1.9,1.3-4,2.2-6.2,2.7c-2.6,0.6-5.3,0.8-8,0.8
	c-8,0.1-15.7-2.8-21.6-7.9l3.7-5.8c6.3,6.5,18.9,9.2,25.9,6c3-1.3,4.7-4.4,3.9-7.5c-0.7-3.6-3.9-4.7-7.2-5.7
	c-4.9-1.5-8.5-2.1-13.1-3.3c-3.6-0.8-6.8-2.8-9.2-5.7c-2.7-3.6-2.2-9.5-0.2-13.4c2.2-3.6,5.7-6.2,9.9-7.2c2.5-0.7,5-1,7.5-1
	c3.2-0.1,6.4,0.4,9.4,1.4c3.1,1.2,5.9,2.9,8.4,5.1L615.7,292.2L615.7,292.2z M246.9,354.5L234,381.9l-6.8-14l6.2-13.2H230l-5.1,11
	l-5-11h-3.3l6.2,13.2l-6.8,14l-13-27.4h-3.8l15.1,30.9h3.1l7.5-15.3l7.5,15.3h3.1l15.2-30.9H246.9z M263,385.4c-1.6,0-3.2-0.3-4.6-1
	c-1.4-0.6-2.6-1.5-3.7-2.6c-1-1.1-1.9-2.4-2.4-3.8c-0.6-1.5-0.9-3.1-0.9-4.7s0.3-3.2,0.9-4.6c0.6-1.4,1.4-2.7,2.4-3.8
	c1-1.1,2.2-1.9,3.7-2.6c1.5-0.6,3-1,4.6-1c1.7,0,3.2,0.3,4.6,1c1.4,0.6,2.6,1.5,3.6,2.6c2.1,2.3,3.2,5.2,3.2,8.3v0.7
	c0,0.2,0,0.3,0,0.5h-19.8c0.1,1.2,0.4,2.4,0.9,3.4c0.5,1.1,1.1,2,1.9,2.7c0.8,0.8,1.6,1.4,2.6,1.8s2,0.6,3.2,0.6
	c0.7,0,1.5-0.1,2.2-0.3c0.7-0.2,1.4-0.5,2-0.8c0.6-0.4,1.2-0.8,1.7-1.3s0.9-1.1,1.2-1.7l2.6,0.7c-0.4,0.9-0.9,1.7-1.5,2.3
	c-1.4,1.5-3.2,2.5-5.1,3C265.2,385.2,264.1,385.4,263,385.4L263,385.4z M271.5,372.1c-0.1-1.2-0.4-2.3-0.9-3.4
	c-0.5-1-1.1-1.9-1.9-2.6c-1.5-1.5-3.6-2.4-5.8-2.4c-2.2,0-4.3,0.8-5.8,2.4c-0.8,0.8-1.4,1.7-1.8,2.7c-0.5,1-0.7,2.2-0.8,3.4h17
	V372.1z M280.8,352.3h2.9v27.4c0,0.9,0.2,1.5,0.7,2s1.1,0.7,1.9,0.7s1.6-0.2,2.3-0.5l0.5,2.5c-0.6,0.3-1.3,0.5-2,0.6s-1.3,0.2-2,0.2
	c-1.3,0-2.4-0.4-3.1-1.2c-0.8-0.8-1.1-1.9-1.1-3.3C280.8,380.7,280.8,352.3,280.8,352.3z M292.3,373.3c0-1.6,0.3-3.2,0.8-4.6
	s1.3-2.7,2.4-3.8c1-1.1,2.2-1.9,3.6-2.6c1.5-0.6,3.1-1,4.7-0.9c2.2,0,4.1,0.5,5.7,1.5s2.9,2.4,3.7,4l-2.9,0.9
	c-0.6-1.2-1.6-2.1-2.7-2.8c-1.2-0.7-2.5-1-3.9-1c-1.2,0-2.3,0.2-3.3,0.7s-1.9,1.1-2.6,1.9s-1.3,1.8-1.8,2.9
	c-0.4,1.2-0.7,2.4-0.6,3.7c0,1.3,0.2,2.5,0.7,3.7c0.4,1.2,1,2.2,1.8,3s1.6,1.5,2.7,2c1,0.5,2.1,0.7,3.2,0.7c1.5,0,2.9-0.4,4.2-1.2
	c0.6-0.4,1.1-0.8,1.6-1.3c0.4-0.5,0.8-1,0.9-1.5l3,0.9c-0.3,0.8-0.8,1.6-1.4,2.3c-0.6,0.7-1.4,1.3-2.2,1.8c-0.9,0.5-1.8,0.9-2.8,1.2
	c-1,0.3-2.1,0.4-3.1,0.4c-3.1,0-6.2-1.3-8.3-3.6c-1-1.1-1.8-2.4-2.4-3.8C292.6,376.5,292.3,374.9,292.3,373.3 M329.4,385.4
	c-1.6,0-3.2-0.3-4.6-1c-1.4-0.6-2.6-1.5-3.6-2.6s-1.8-2.4-2.4-3.8c-0.6-1.5-0.8-3-0.8-4.6s0.3-3.2,0.9-4.6s1.4-2.7,2.4-3.8
	c1-1.1,2.3-2,3.6-2.6c1.4-0.7,3-1,4.6-1c1.7,0,3.2,0.3,4.6,1c1.4,0.6,2.6,1.5,3.6,2.6c2.1,2.3,3.3,5.3,3.3,8.4
	c0,1.6-0.3,3.1-0.8,4.6c-0.5,1.4-1.3,2.7-2.4,3.8C335.6,384.1,332.6,385.4,329.4,385.4 M321.1,373.5c0,1.3,0.2,2.5,0.7,3.6
	c0.4,1.1,1,2.1,1.8,2.9s1.6,1.5,2.7,2c1,0.5,2.1,0.7,3.3,0.7s2.2-0.2,3.3-0.7c1-0.5,1.9-1.2,2.7-2c0.8-0.8,1.4-1.8,1.8-3
	s0.7-2.4,0.7-3.6c0-1.3-0.2-2.5-0.7-3.6c-0.4-1.1-1-2.1-1.8-3c-0.8-0.8-1.7-1.5-2.7-2s-2.1-0.7-3.3-0.7c-1.2,0-2.2,0.2-3.2,0.7
	s-1.9,1.2-2.7,2c-0.8,0.9-1.4,1.9-1.8,3C321.3,371,321,372.2,321.1,373.5 M382.3,384.9h-3V372c0-2.7-0.4-4.7-1.3-5.9
	c-0.9-1.3-2.1-1.9-3.8-1.9c-0.9,0-1.7,0.2-2.5,0.5s-1.5,0.8-2.2,1.4s-1.3,1.3-1.8,2.1c-0.5,0.8-0.9,1.7-1.2,2.7V385h-3v-13
	c0-2.8-0.4-4.7-1.3-6c-0.8-1.2-2.1-1.9-3.9-1.9s-3.3,0.6-4.7,1.8c-1.4,1.2-2.4,2.8-3,4.8v14.2h-3v-23.1h2.8v5.2
	c1-1.8,2.2-3.2,3.8-4.1c1.5-1,3.3-1.5,5.1-1.5c2,0,3.5,0.5,4.7,1.6s1.9,2.5,2.2,4.3c2.2-4,5.2-5.9,9-5.9c1.3,0,2.4,0.2,3.3,0.7
	s1.6,1.1,2.2,2c0.5,0.9,1,1.9,1.2,3.1c0.3,1.2,0.4,2.6,0.4,4.1L382.3,384.9L382.3,384.9z M400.3,385.4c-1.6,0-3.2-0.3-4.6-1
	c-1.4-0.6-2.6-1.5-3.7-2.6c-1-1.1-1.9-2.4-2.4-3.8c-0.6-1.5-0.9-3.1-0.9-4.7s0.3-3.2,0.9-4.6s1.4-2.7,2.4-3.8c1-1.1,2.2-1.9,3.7-2.6
	c1.5-0.6,3-1,4.6-1c1.7,0,3.2,0.3,4.6,1c1.4,0.6,2.6,1.5,3.6,2.6c2.1,2.3,3.2,5.2,3.2,8.3v0.7c0,0.2,0,0.3,0,0.5h-19.8
	c0.1,1.2,0.4,2.4,0.9,3.4c0.5,1.1,1.1,2,1.9,2.7c0.8,0.8,1.6,1.4,2.6,1.8s2,0.6,3.2,0.6c0.7,0,1.5-0.1,2.2-0.3
	c0.7-0.2,1.4-0.5,2-0.8c0.6-0.4,1.2-0.8,1.7-1.3s0.9-1.1,1.2-1.7l2.6,0.7c-0.4,0.9-0.9,1.7-1.5,2.3c-1.4,1.5-3.2,2.5-5.1,3
	C402.5,385.2,401.4,385.4,400.3,385.4z M408.8,372.1c-0.1-1.2-0.4-2.3-0.9-3.4c-0.5-1-1.1-1.9-1.9-2.6c-1.5-1.5-3.6-2.4-5.8-2.4
	c-2.2,0-4.3,0.8-5.8,2.4c-0.8,0.8-1.4,1.7-1.8,2.7c-0.5,1-0.7,2.2-0.8,3.4h17V372.1z M441.2,383.8c-0.3,0.1-0.5,0.2-0.8,0.4
	c-0.4,0.2-0.8,0.3-1.1,0.4c-0.4,0.2-0.9,0.3-1.5,0.4s-1.1,0.2-1.7,0.2s-1.2-0.1-1.8-0.3c-0.6-0.2-1.1-0.4-1.5-0.8s-0.8-0.9-1-1.4
	c-0.3-0.6-0.4-1.3-0.4-2V364h-3.1v-2.4h3.1v-7.9h2.9v7.9h5.2v2.4h-5.2v15.8c0.1,0.9,0.3,1.5,0.9,1.9c0.5,0.4,1.1,0.6,1.8,0.6
	c0.8,0,1.6-0.1,2.2-0.4s1-0.5,1.2-0.6L441.2,383.8L441.2,383.8z M455.9,385.4c-1.6,0-3.2-0.3-4.6-1c-1.4-0.6-2.6-1.5-3.6-2.6
	s-1.8-2.4-2.4-3.8c-0.6-1.5-0.9-3-0.8-4.6c0-1.6,0.3-3.2,0.9-4.6s1.4-2.7,2.4-3.8c1-1.1,2.3-2,3.6-2.6c1.4-0.7,3-1,4.6-1
	c1.7,0,3.2,0.3,4.6,1c1.4,0.6,2.6,1.5,3.6,2.6c2.1,2.3,3.3,5.3,3.3,8.4c0,1.6-0.3,3.1-0.8,4.6c-0.5,1.4-1.3,2.7-2.4,3.8
	C462,384.1,459,385.4,455.9,385.4 M447.5,373.5c0,1.3,0.2,2.5,0.7,3.6c0.4,1.1,1,2.1,1.8,2.9s1.6,1.5,2.7,2c1,0.5,2.1,0.7,3.3,0.7
	c1.2,0,2.2-0.2,3.3-0.7c1-0.5,1.9-1.2,2.7-2c0.8-0.8,1.4-1.8,1.8-3s0.7-2.4,0.7-3.6c0-1.3-0.2-2.5-0.7-3.6c-0.4-1.1-1-2.1-1.8-3
	c-0.8-0.8-1.7-1.5-2.7-2s-2.1-0.7-3.3-0.7c-1.2,0-2.2,0.2-3.2,0.7s-1.9,1.2-2.7,2c-0.8,0.9-1.4,1.9-1.8,3
	C447.7,371,447.5,372.2,447.5,373.5 M510.9,376.8c0,1.2-0.2,2.3-0.7,3.3s-1.1,1.9-1.9,2.6s-1.7,1.3-2.8,1.7
	c-1.1,0.4-2.3,0.6-3.4,0.6h-14.9v-31.7h15.2c1.1,0,2.1,0.2,3,0.7s1.6,1.1,2.3,1.9c0.6,0.8,1.1,1.6,1.4,2.6s0.5,1.9,0.5,2.9
	c0,1.5-0.4,3.1-1.2,4.4c-0.8,1.3-1.9,2.3-3.3,3c1.8,0.5,3.2,1.5,4.3,3C510.4,373.1,510.9,374.8,510.9,376.8L510.9,376.8z
	 M490.4,355.9v11.7h10.8c0.8,0,1.5-0.2,2.2-0.5s1.2-0.8,1.7-1.3s0.8-1.2,1.1-1.9c0.3-0.7,0.4-1.4,0.4-2.2c0-0.8-0.1-1.6-0.4-2.3
	c-0.5-1.3-1.4-2.5-2.7-3.1c-0.6-0.3-1.3-0.5-2-0.5C501.4,355.9,490.4,355.9,490.4,355.9z M507.8,376.2c0-0.8-0.1-1.5-0.4-2.3
	c-0.5-1.4-1.5-2.6-2.9-3.3c-0.7-0.3-1.4-0.5-2.1-0.5h-12.1v12h11.8c0.8,0,1.5-0.2,2.2-0.5c1.4-0.6,2.5-1.8,3-3.2
	C507.7,377.7,507.8,377,507.8,376.2L507.8,376.2z M527.8,385.4c-1.6,0-3.2-0.3-4.6-1c-1.4-0.6-2.6-1.5-3.7-2.6
	c-1-1.1-1.9-2.4-2.4-3.8c-0.6-1.5-0.9-3.1-0.9-4.7s0.3-3.2,0.9-4.6c0.6-1.4,1.4-2.7,2.4-3.8c1-1.1,2.2-1.9,3.7-2.6
	c1.5-0.6,3-1,4.6-1c1.7,0,3.2,0.3,4.6,1c1.4,0.6,2.6,1.5,3.6,2.6c2.1,2.3,3.2,5.2,3.2,8.3v0.7c0,0.2,0,0.3,0,0.5h-19.8
	c0.1,1.2,0.4,2.4,0.9,3.4c0.5,1.1,1.1,2,1.9,2.7c0.8,0.8,1.6,1.4,2.6,1.8s2,0.6,3.2,0.6c0.7,0,1.5-0.1,2.2-0.3
	c0.7-0.2,1.4-0.5,2-0.8c0.6-0.4,1.2-0.8,1.7-1.3s0.9-1.1,1.2-1.7l2.6,0.7c-0.4,0.9-0.9,1.7-1.5,2.3c-1.4,1.5-3.2,2.5-5.1,3
	C529.9,385.2,528.9,385.4,527.8,385.4L527.8,385.4z M536.3,372.1c-0.1-1.2-0.4-2.3-0.9-3.4c-0.5-1-1.1-1.9-1.9-2.6
	c-1.5-1.5-3.6-2.4-5.8-2.4s-4.3,0.8-5.8,2.4c-0.8,0.8-1.4,1.7-1.8,2.7c-0.5,1-0.7,2.2-0.8,3.4h17V372.1z M556,383.8
	c-0.2,0.1-0.5,0.2-0.8,0.4c-0.4,0.2-0.8,0.3-1.1,0.4c-0.4,0.2-0.9,0.3-1.5,0.4s-1.2,0.2-1.7,0.2c-0.6,0-1.2-0.1-1.8-0.3
	c-0.6-0.2-1.1-0.4-1.5-0.8s-0.8-0.9-1-1.4c-0.3-0.6-0.4-1.3-0.4-2V364H543v-2.4h3.1v-7.9h2.9v7.9h5.2v2.4H549v15.8
	c0.1,0.9,0.3,1.5,0.9,1.9c0.5,0.4,1.1,0.6,1.8,0.6c0.8,0,1.6-0.1,2.2-0.4c0.6-0.3,1-0.5,1.2-0.6L556,383.8L556,383.8z M572.2,383.8
	c-0.3,0.1-0.5,0.2-0.8,0.4c-0.4,0.2-0.8,0.3-1.1,0.4c-0.4,0.2-0.9,0.3-1.5,0.4s-1.1,0.2-1.7,0.2c-0.6,0-1.2-0.1-1.8-0.3
	c-0.6-0.2-1.1-0.4-1.5-0.8s-0.8-0.9-1-1.4c-0.3-0.6-0.4-1.3-0.4-2V364h-3.1v-2.4h3.1v-7.9h2.9v7.9h5.2v2.4h-5.2v15.8
	c0.1,0.9,0.4,1.5,0.9,1.9s1.1,0.6,1.8,0.6c0.8,0,1.6-0.1,2.2-0.4c0.6-0.3,1-0.5,1.2-0.6L572.2,383.8L572.2,383.8z M586.9,385.4
	c-1.6,0-3.2-0.3-4.6-1c-1.4-0.6-2.6-1.5-3.7-2.6c-1-1.1-1.9-2.4-2.4-3.8c-0.6-1.5-0.9-3.1-0.9-4.7s0.3-3.2,0.9-4.6
	c0.6-1.4,1.4-2.7,2.4-3.8c1-1.1,2.2-1.9,3.7-2.6c1.5-0.6,3-1,4.6-1c1.7,0,3.2,0.3,4.6,1c1.4,0.6,2.6,1.5,3.6,2.6
	c2.1,2.3,3.2,5.2,3.2,8.3v0.7c0,0.2,0,0.3,0,0.5h-19.8c0.1,1.2,0.4,2.4,0.9,3.4c0.5,1.1,1.1,2,1.9,2.7c0.8,0.8,1.6,1.4,2.6,1.8
	s2,0.6,3.2,0.6c0.7,0,1.5-0.1,2.2-0.3c0.7-0.2,1.4-0.5,2-0.8c0.6-0.4,1.2-0.8,1.7-1.3s0.9-1.1,1.2-1.7l2.6,0.7
	c-0.4,0.9-0.9,1.7-1.5,2.3c-1.4,1.5-3.2,2.5-5.1,3C589.1,385.2,588,385.4,586.9,385.4z M595.5,372.1c-0.1-1.2-0.4-2.3-0.9-3.4
	c-0.5-1-1.1-1.9-1.9-2.6c-1.5-1.5-3.6-2.4-5.8-2.4s-4.3,0.8-5.8,2.4c-0.8,0.8-1.4,1.7-1.8,2.7c-0.5,1-0.7,2.2-0.8,3.4h17V372.1z
	 M615.9,364.5c-2,0.1-3.7,0.6-5.2,1.7s-2.5,2.5-3.1,4.4V385h-2.9v-23.1h2.8v5.5c0.8-1.8,2-3.2,3.4-4.2s2.9-1.5,4.5-1.5
	c0.2,0,0.4,0,0.6,0L615.9,364.5L615.9,364.5z"/>
</svg>
