<?xml version="1.0" encoding="utf-8"?>
<!-- Generator: Adobe Illustrator 25.2.1, SVG Export Plug-In . SVG Version: 6.00 Build 0)  -->
<svg version="1.1" id="layer" xmlns="http://www.w3.org/2000/svg" xmlns:xlink="http://www.w3.org/1999/xlink" x="0px" y="0px"
	 viewBox="0 0 652 652" style="enable-background:new 0 0 652 652;" xml:space="preserve">
<path d="M21.8,270c0-41,26.7-66.4,67.3-66.4l49.4,2.7v38.2h-0.4l-51.4-38.2c-21.6,0-34.6,21.2-34.6,57.2c0,41.1,17,69.7,39.7,69.7
	c18.7,0,32.9-19,46.3-44.3h0.4v44.3c-11.3,1.6-29.3,2.7-47.5,2.7C54.8,336,21.8,310.4,21.8,270 M255.9,300.5h-0.4L210,332h-16.5
	v-61.6h11.2l45.2,16.5h0.4v-35.7h-0.4l-45.2,16.5h-11.2v-60H210l45.5,31.5h0.4V205H157v0.4l6.2,45.5v38l-6.4,45.5v0.4h99.1V300.5z
	 M319.7,279.7c17.4,0,29.8-8,29.8-36c0-21.6-6.9-36-29.8-36h-8v72.1C311.7,279.7,319.7,279.7,319.7,279.7z M275.1,334.3l6.2-45.5
	v-38l-6.4-45.5v-0.4h50.5c32,0,54.3,8.8,54.3,39.1c0,17.4-7.3,30.7-31.5,36.2v4l16.1,21.6l22.1,28.5v0.4h-41.3l-11-28.9l-13-23.4
	h-9.5v2.4l6.6,49.6v0.4H275L275.1,334.3L275.1,334.3z M398,334.4l6.4-45.5v-38l-6.2-45.5V205h98.9v34.2h-0.4l-45.5-31.5h-16.5v60
	h11.2l45.2-16.5h0.4v35.7h-0.4l-45.2-16.5h-11.2V332h16.5l45.5-31.5h0.4v34.2H398V334.4z M515.2,333.3V295h0.4l51.9,38.2
	c15.4,0,24.1-10.4,24.1-23.2c0-15-11.9-19.9-24.9-25.6c-25.2-10.4-51.9-19-51.9-46.8c0-24.1,20.5-34,52.7-34l43.5,2.7v38.2h-0.4
	l-46.5-38.2c-11.9,0-19.2,7.3-19.2,20.5c0,13.9,7.7,21,26.1,28.3c24.3,9.7,50.7,16.5,50.7,41.3c0,20.7-17.9,39.5-61.3,39.5
	C560.6,336,515.2,333.3,515.2,333.3z M260.1,437.8h-30.5v-43.2h6.9v37h23.6V437.8z M287,437.8h6.9v-43.2H287V437.8z M330.3,413.7
	h22.3v6.3h-22.3v17.9h-6.9v-43.2H355v6.3h-24.7V413.7z M413.3,437.8h-32.2v-43.2h32.1v6.3H388v12.2h23.3v6.2H388v12.3h25.3V437.8z"
	/>
</svg>
