<?xml version="1.0" encoding="utf-8"?>
<!-- Generator: Adobe Illustrator 25.2.1, SVG Export Plug-In . SVG Version: 6.00 Build 0)  -->
<svg version="1.1" id="layer" xmlns="http://www.w3.org/2000/svg" xmlns:xlink="http://www.w3.org/1999/xlink" x="0px" y="0px"
	 viewBox="0 0 652 652" style="enable-background:new 0 0 652 652;" xml:space="preserve">
<path d="M315.7,340.9l-4-2.1l-4,2.2l0.7-4.5l-3.3-3.1l4.5-0.7l2-4.1l2.1,4l4.5,0.6l-3.2,3.2L315.7,340.9z M352.1,336.4l3.2-3.2
	l-4.5-0.6l-2.1-4l-2,4.1l-4.5,0.7l3.3,3.1l-0.7,4.5l4-2.2l4,2.1L352.1,336.4z M389.4,336.4l3.2-3.2l-4.5-0.6l-2.1-4l-2,4.1l-4.5,0.7
	l3.3,3.1l-0.7,4.5l4-2.2l4,2.1L389.4,336.4z M426.7,336.4l3.2-3.2l-4.5-0.6l-2.1-4l-2,4.1l-4.5,0.7l3.3,3.1l-0.7,4.5l4-2.2l4,2.1
	L426.7,336.4z M28.9,328.2c94.2-5.9,154,31.8,154,31.8v-22.5C113.3,301.9,28.9,328.2,28.9,328.2 M31.3,340.2
	c31.9,4.6,37.5,4,104.4,26.4c89.4,32.9,104.4,24.9,104.4,24.9s-5.8,5.4-54.8-16.3C101,330.8,31.3,340.2,31.3,340.2 M21.7,358.4
	c16.3,1.9,24.8,2.6,48.1,10.3c30.1,10,68.9,10.5,60.3,9.2c0,0-18.2-3.1-39.8-11.2C54.4,353.2,21.7,358.4,21.7,358.4 M105.6,304.8
	c33.3,0,62.2,5.4,77,13.4v-52.1c0,0-2.7-8.5-16.2-13.1v11.9c0,0-14.4-5.2-19.9-6.1v-11.3c0,0-19.2-4.2-31.6-4.1v12.1
	c0,0-15.8-0.6-19.4-0.1v-12c0,0-23.3,1.1-30.7,3.8V259c0,0-10.8,1.6-19.5,5.3v-11.7c0,0-11.4,3.3-16.8,12.3v53.3
	C43.3,310.2,72.3,304.8,105.6,304.8 M292.3,273.5c-7,0-12.3,7.8-12.3,18.3h24.7C304.6,280.3,300.5,273.5,292.3,273.5 M268.8,294.4
	c0-14.1,8.2-25.6,22.9-25.6c15.9,0,23.5,8.4,23.5,23L315,296h-35c0,11.5,5.9,19.9,15.9,19.9c7.6,0,12.3-3.1,16.5-8.4l2.4,1.6
	c-5.3,7.8-12.3,11-21.1,11C277,320.1,268.8,308.6,268.8,294.4z M345.8,273c-10.6,0-14.7,9.4-14.7,21.4s4.1,21.4,13.5,21.4
	c7.1,0,10-3.1,12.3-6.3V276C353.4,274.6,349.3,273,345.8,273 M319.9,294.4c0-14.1,7-25.6,22.3-25.6c6.5,0,11.2,1.6,14.7,3.1v-9.4
	c0-6.3-1.2-10.5-8.2-10.5h-2.4v-2h10.6c8.2,0,10.6,2.1,10.6,12.5V319h-5.9l-4.1-4.7h-0.6c-2.4,2.6-6.5,5.8-15.9,5.8
	C326.9,320.1,319.9,308.6,319.9,294.4z M397.6,320.1c9.4,0,16.5-3.1,21.7-11l-2.4-1.6c-4.1,5.2-8.8,8.4-17,8.4
	c-11.8,0-17-9.4-17-21.4s5.3-21.4,17-21.4c8.2,0,14.7,4.2,15.3,13.1h2.4c0-7.8,0-11-2.9-13.6s-8.8-3.7-17-3.7
	c-17.6,0-25.9,11.5-25.9,25.6C371.7,308.6,380,320.1,397.6,320.1 M456.6,295H453c-11.7,0-18.8,4.2-18.8,10.5c0,6.8,5.3,9.9,11.2,9.9
	c5.9,0,8.8-3.1,11.2-6.3L456.6,295L456.6,295z M453,290.8h3.5c0-14.6-5.3-17.8-12.3-17.8c-6.5,0-11.2,2.1-12.9,8.9H426
	c0-3.7,0-6.8,2.9-9.4s10.6-3.7,17.6-3.7c10.6,0,20.6,3.1,20.6,21.9V319h-5.9l-4.1-4.7h-0.6c-2.3,2.6-7.6,5.8-16.5,5.8
	c-6.5,0-17-3.1-17-14.6C423.1,293.9,437.2,290.8,453,290.8z M491.8,315.9c-10,0-15.3-4.2-16.5-11H473c0,5.2,0,8.4,2.9,11
	s8.8,4.2,18.2,4.2c11.8,0,20.6-4.7,20.6-13.6c0-7.3-5.3-11-15.3-14.6l-7-2.6c-5.9-2.2-9.4-5.2-9.4-8.9c0-4.2,4.1-7.3,11.8-7.3
	c9.4,0,14.7,4.2,15.9,11h2.4c0-5.2,0-8.4-2.9-11s-8.8-4.2-17.6-4.2c-11.2,0-19.4,4.7-19.4,13.6c0,6.8,5.3,10.9,14.1,14.1l7,2.6
	c7.1,2.6,10.6,5.2,10.6,9.4C504.8,312.7,500.6,315.9,491.8,315.9 M523.2,306.5c0,9.4,5.9,13.6,14.1,13.6c8.2,0,12.3-2.6,14.7-4.2
	l-1.2-2.1c-2.4,1-4.7,2.1-8.8,2.1c-5.3,0-8.2-3.1-8.2-9.4v-32.4h14.1v-4.2h-14.1v-15.7h-4.7l-5.9,6.3v9.4H515v4.2h8.2V306.5z
	 M558.6,262.6V319h10.6v-56.5c0-10.5-2.4-12.5-10.6-12.5H548v2.1h2.4C557.4,252.1,558.6,256.3,558.6,262.6 M611.1,291.8
	c0-11.5-4.1-18.3-12.3-18.3c-7.1,0-12.3,7.8-12.3,18.3H611.1z M621.5,296h-35c0,11.5,5.9,19.9,15.9,19.9c7.6,0,12.3-3.1,16.5-8.4
	l2.4,1.6c-5.3,7.8-12.3,11-21.2,11c-16.5,0-24.7-11.5-24.7-25.6s8.2-25.6,22.9-25.6c15.9,0,23.5,8.4,23.5,23L621.5,296z M381,356.8
	c-81,11.4-105.6-14.1-119.2-28.6c-6.2-7.4-10.6-11.1-13.7-12.9c-0.2-0.1-0.3-0.2-0.5-0.3c0,0,0,0-0.1,0c-0.1-0.1-0.2-0.1-0.3-0.2
	c-0.2-0.1-0.3-0.2-0.5-0.2c11.7-3.8,17.5-11.1,17.5-21.9c0-6.9-2.7-12.6-8.3-17.1c-5.5-4.5-12.8-6.7-22-6.7h-37.3v2.6
	c4.1,0,6.8,1,8.2,3.1c1.4,2,2.1,5.7,2.1,11.1v6.5v54.6c0,6.3-1.4,10.4-9.6,10.4h-2.7v2.1h12.3c7.6,0,10.9-1.3,11.9-7.2v-79.7l0,0
	l0,0h9.5c6.9,0,12.5,1.9,16.7,5.7c4.2,3.8,6.3,8.8,6.3,14.9c0,6.3-1.9,11.4-5.7,15.2c-6.8,6.8-12.7,7.8-22.8,8.4l2,0.4
	c3.7,0.4,11.8,2.4,20.2,11.8c11.8,13.3,36.8,53,143.1,34.9c93.9-16,162.5-48.3,218.3-35.9C561.6,311.3,469.5,346.7,381,356.8
	 M273.9,385.2c0,1-0.1,2-0.4,2.9s-0.7,1.7-1.2,2.4c-0.5,0.7-1.1,1.2-1.8,1.7c-0.7,0.4-1.5,0.6-2.4,0.6s-1.7-0.2-2.4-0.6
	c-0.7-0.4-1.3-0.9-1.8-1.6s-0.9-1.5-1.1-2.5c-0.3-0.9-0.4-2-0.4-3.1s0.2-2.1,0.4-3c0.3-0.9,0.7-1.7,1.2-2.3c0.5-0.6,1.1-1.1,1.8-1.5
	c0.7-0.3,1.5-0.5,2.3-0.5c0.9,0,1.7,0.2,2.4,0.5c0.7,0.4,1.3,0.9,1.8,1.5c0.5,0.7,0.9,1.5,1.1,2.4
	C273.8,383.1,273.9,384.1,273.9,385.2 M275.4,381.2c-0.4-1.1-0.9-2-1.6-2.8s-1.5-1.3-2.4-1.8c-0.9-0.4-2-0.6-3.1-0.6
	s-2.2,0.2-3.1,0.7c-1,0.4-1.8,1.1-2.5,1.9s-1.3,1.8-1.7,2.9c-0.4,1.1-0.6,2.4-0.6,3.7c0,1.4,0.2,2.7,0.5,3.8
	c0.3,1.1,0.8,2.1,1.5,2.9s1.5,1.4,2.4,1.9c1,0.4,2.1,0.7,3.3,0.7c0.8,0,1.5-0.1,2.2-0.3c0.7-0.2,1.3-0.5,1.9-0.9s1.1-0.9,1.6-1.5
	s0.8-1.2,1.2-1.9c0.3-0.7,0.6-1.5,0.7-2.3c0.2-0.8,0.3-1.7,0.3-2.6C276,383.6,275.8,382.3,275.4,381.2z M287.6,391.3
	c-0.4,0.5-0.8,1-1.3,1.3s-1.2,0.5-2,0.5c-0.6,0-1.1-0.1-1.5-0.4s-0.8-0.7-1.2-1.2c-0.3-0.5-0.6-1-0.7-1.6c-0.2-0.6-0.3-1.3-0.3-1.9
	s0.1-1.2,0.2-1.8c0.1-0.6,0.4-1.1,0.7-1.5c0.3-0.4,0.7-0.8,1.1-1c0.5-0.3,1-0.4,1.6-0.4c0.7,0,1.3,0.1,1.7,0.3
	c0.4,0.2,0.9,0.6,1.3,1.1l1.2-1.1c-0.3-0.3-0.6-0.6-0.8-0.8c-0.3-0.2-0.6-0.4-0.9-0.5s-0.7-0.2-1.1-0.3c-0.4-0.1-0.8-0.1-1.2-0.1
	c-0.9,0-1.7,0.2-2.4,0.5c-0.7,0.3-1.3,0.8-1.7,1.4c-0.5,0.6-0.8,1.2-1.1,2c-0.2,0.8-0.4,1.5-0.4,2.4c0,0.5,0,1.1,0.1,1.6
	s0.2,1,0.4,1.5c0.2,0.5,0.4,0.9,0.8,1.3c0.3,0.4,0.7,0.7,1.1,1s0.9,0.5,1.4,0.7s1.1,0.2,1.7,0.2c0.5,0,1,0,1.4-0.1s0.8-0.2,1.2-0.3
	c0.4-0.2,0.7-0.4,1.1-0.7c0.3-0.3,0.6-0.6,0.9-1.1L287.6,391.3z M296.4,383.1c0.6,0,1,0.1,1.4,0.3c0.4,0.2,0.7,0.5,0.9,0.8
	c0.2,0.3,0.4,0.7,0.5,1.2c0.1,0.4,0.2,0.9,0.2,1.3h-6.3c0-0.4,0.1-0.9,0.3-1.3c0.1-0.4,0.4-0.8,0.6-1.2c0.3-0.3,0.6-0.6,1-0.8
	S295.9,383.1,296.4,383.1 M300.2,390.9c-0.3,0.4-0.6,0.7-0.9,0.9c-0.3,0.2-0.6,0.4-0.9,0.6c-0.3,0.1-0.6,0.2-1,0.3
	c-0.3,0.1-0.7,0.1-1,0.1c-0.5,0-1-0.1-1.4-0.4s-0.7-0.6-1-1.1c-0.3-0.4-0.5-1-0.7-1.6s-0.2-1.2-0.2-1.9h8.1c0-0.6,0-1.1,0-1.7
	c-0.1-0.7-0.2-1.3-0.4-1.9c-0.2-0.6-0.5-1-0.9-1.4s-0.9-0.7-1.4-0.9c-0.6-0.2-1.3-0.3-2.1-0.3c-0.9,0-1.7,0.2-2.3,0.5
	c-0.6,0.3-1.2,0.8-1.6,1.4s-0.7,1.2-0.9,2c-0.2,0.7-0.3,1.5-0.3,2.3s0.1,1.7,0.3,2.4c0.2,0.8,0.5,1.5,1,2.1c0.4,0.6,1,1.1,1.6,1.4
	c0.7,0.4,1.5,0.5,2.4,0.5c0.5,0,0.9,0,1.3-0.1s0.8-0.2,1.2-0.4c0.4-0.2,0.8-0.4,1.2-0.7c0.4-0.3,0.8-0.7,1.2-1.2L300.2,390.9z
	 M311.7,391.3c-0.5,0.4-1.1,0.8-1.8,1.1c-0.7,0.3-1.3,0.5-2,0.5c-0.6,0-1.1-0.2-1.5-0.5s-0.6-0.8-0.6-1.4s0.1-1,0.4-1.4
	s0.7-0.6,1.2-0.9c0.5-0.2,1.1-0.4,1.8-0.5c0.7-0.1,1.5-0.2,2.4-0.3v3.4H311.7z M305.6,384.8c1-0.7,1.7-1.2,2.2-1.3
	c0.5-0.2,1.1-0.2,1.7-0.2c0.7,0,1.2,0.2,1.6,0.6s0.6,0.9,0.6,1.4v1.5c-0.7,0.1-1.3,0.2-2,0.2c-0.6,0.1-1.3,0.2-1.8,0.4
	c-0.6,0.1-1.1,0.3-1.6,0.5s-0.9,0.5-1.3,0.8s-0.6,0.7-0.8,1.1c-0.2,0.4-0.3,1-0.3,1.5s0.1,0.9,0.2,1.3c0.2,0.4,0.4,0.7,0.7,1
	c0.3,0.3,0.6,0.5,1.1,0.6c0.4,0.1,0.9,0.2,1.4,0.2c0.9,0,1.7-0.2,2.5-0.5c0.7-0.3,1.4-0.7,1.9-1.1c0.1,0.6,0.3,1,0.5,1.3
	c0.3,0.3,0.6,0.4,1,0.4c0.5,0,0.9-0.1,1.3-0.2s0.7-0.3,0.9-0.5l-0.3-0.8c-0.3,0.1-0.6,0.1-0.8,0.1c-0.4,0-0.6-0.1-0.8-0.3
	c-0.2-0.2-0.2-0.6-0.2-1.2v-6.1c0-0.5-0.1-1-0.2-1.4s-0.3-0.8-0.6-1.1c-0.3-0.3-0.7-0.5-1.3-0.7c-0.5-0.2-1.2-0.3-2-0.3
	s-1.5,0.1-2.2,0.3c-0.7,0.2-1.5,0.7-2.5,1.4L305.6,384.8z M318.1,382.7c0,0.3,0,0.6,0,0.9v10.6h1.8v-9.8c0.3-0.2,0.6-0.3,0.9-0.5
	c0.3-0.1,0.6-0.3,1-0.4c0.3-0.1,0.7-0.2,1-0.2c0.3-0.1,0.7-0.1,1-0.1s0.6,0.1,0.8,0.2c0.3,0.1,0.5,0.3,0.7,0.5s0.4,0.5,0.5,0.8
	s0.2,0.7,0.2,1.1v8.3h1.8v-8.5c0-0.6-0.1-1.1-0.2-1.6c-0.2-0.5-0.4-0.9-0.7-1.2c-0.3-0.3-0.7-0.6-1.2-0.8c-0.5-0.2-1-0.3-1.6-0.3
	c-0.4,0-0.8,0-1.1,0.1c-0.4,0.1-0.7,0.2-1.1,0.3c-0.4,0.1-0.7,0.3-1,0.4c-0.3,0.2-0.6,0.3-0.9,0.5c0-0.1,0-0.1,0-0.2s0-0.2,0-0.3
	c0-0.1,0-0.2,0-0.3c0-0.1,0-0.2,0-0.3h-1.7C318.1,382.1,318.1,382.4,318.1,382.7 M330.2,382v1.5h1.6v10.7h1.8v-10.7h2.7l0.2-1.5
	h-2.9c0-1,0-1.7,0.1-2.3c0-0.6,0.2-1,0.4-1.2c0.3-0.4,1-0.7,1.9-0.7c0.1,0,0.2,0,0.4,0.1c0.1,0,0.3,0.1,0.4,0.1
	c0.1,0.1,0.3,0.1,0.4,0.2s0.3,0.1,0.4,0.2l0.8-1.5c-0.1-0.1-0.3-0.2-0.5-0.2c-0.2-0.1-0.4-0.1-0.6-0.2c-0.2,0-0.4-0.1-0.6-0.1
	s-0.4,0-0.6,0c-0.6,0-1.1,0.1-1.6,0.3c-0.5,0.2-0.9,0.5-1.3,0.8c-0.4,0.4-0.7,0.9-0.9,1.5c-0.2,0.6-0.3,1.3-0.3,2.1v0.9L330.2,382
	L330.2,382z M339.2,381.9c0,0.2,0,0.4,0.1,0.6c0,0.2,0,0.5,0,0.8v10.8h1.8v-8.5c0.2-0.3,0.3-0.5,0.6-0.8c0.2-0.2,0.5-0.5,0.8-0.7
	s0.7-0.3,1.1-0.5c0.4-0.1,0.8-0.2,1.3-0.2c0.2,0,0.3,0,0.5,0c0.1,0,0.3,0,0.4,0.1l0.4-1.9c-0.1,0-0.1,0-0.2,0s-0.2,0-0.3,0
	c-0.4,0-0.9,0.1-1.3,0.2s-0.8,0.3-1.2,0.5c-0.4,0.2-0.7,0.5-1.1,0.7c-0.3,0.3-0.6,0.6-0.9,0.8v-0.9c0-0.2,0-0.4,0-0.6s0-0.4-0.1-0.6
	h-1.9V381.9z M352.9,392.9c-0.6,0-1.2-0.1-1.7-0.4s-1-0.8-1.4-1.5c-0.5-0.7-0.7-1.7-0.7-2.9c0-1.5,0.3-2.6,1-3.5s1.6-1.4,2.8-1.4
	c1.2,0,2.1,0.5,2.8,1.4c0.6,0.9,1,2,1,3.1c0,1.3-0.2,2.4-0.7,3.1c-0.5,0.8-0.9,1.3-1.4,1.6C354,392.8,353.5,392.9,352.9,392.9
	 M356.9,392.5c1-1.2,1.5-2.7,1.5-4.4c0-1.8-0.5-3.3-1.4-4.5c-1-1.2-2.3-1.8-4.1-1.8c-1.7,0-3.1,0.6-4.2,1.7c-1,1.2-1.6,2.6-1.6,4.4
	c0,1.9,0.5,3.5,1.5,4.7s2.4,1.8,4.3,1.8C354.6,394.3,355.9,393.7,356.9,392.5z M361.8,382.7c0,0.3,0,0.6,0,0.9v10.6h1.8v-9.8
	c0.3-0.2,0.6-0.3,0.9-0.5c0.3-0.1,0.6-0.3,1-0.4c0.3-0.1,0.7-0.2,1-0.2c0.3-0.1,0.7-0.1,1-0.1s0.6,0.1,0.8,0.2
	c0.3,0.1,0.5,0.3,0.7,0.5s0.4,0.5,0.5,0.8s0.2,0.7,0.2,1.1v8.3h1.8v-8.5c0-0.6-0.1-1.1-0.2-1.6c-0.2-0.5-0.4-0.9-0.7-1.2
	c-0.3-0.3-0.7-0.6-1.2-0.8c-0.5-0.2-1-0.3-1.6-0.3c-0.4,0-0.8,0-1.1,0.1c-0.4,0.1-0.7,0.2-1.1,0.3c-0.4,0.1-0.7,0.3-1,0.4
	c-0.3,0.2-0.6,0.3-0.9,0.5c0-0.1,0-0.1,0-0.2s0-0.2,0-0.3c0-0.1,0-0.2,0-0.3c0-0.1,0-0.2,0-0.3H362
	C361.8,382.1,361.8,382.4,361.8,382.7 M374.1,383.5h1.8v7.5c0,0.5,0,1,0.1,1.4s0.3,0.8,0.5,1.1c0.2,0.3,0.5,0.5,0.9,0.7
	c0.4,0.1,0.9,0.2,1.5,0.2c0.1,0,0.2,0,0.4,0c0.2,0,0.4,0,0.6-0.1c0.2,0,0.4,0,0.6-0.1c0.2,0,0.4-0.1,0.5-0.1l-0.1-1.5
	c-0.1,0-0.3,0.1-0.4,0.1c-0.2,0-0.3,0.1-0.5,0.1s-0.3,0.1-0.5,0.1c-0.1,0-0.3,0-0.4,0c-0.3,0-0.5-0.1-0.7-0.2s-0.3-0.3-0.4-0.5
	s-0.2-0.5-0.2-0.7c0-0.3-0.1-0.6-0.1-0.9v-7h2.8l0.2-1.5h-3V379h-1.8v3.1h-1.8V383.5z M383.7,397.6c0.4-0.2,0.7-0.4,1-0.6
	s0.6-0.5,0.9-0.8c0.2-0.3,0.4-0.6,0.6-1c0.1-0.4,0.2-0.8,0.2-1.4c0-0.2,0-0.4-0.1-0.6s-0.2-0.4-0.3-0.6c-0.1-0.2-0.3-0.3-0.6-0.5
	c-0.2-0.1-0.5-0.2-0.8-0.2c-0.2,0-0.3,0-0.5,0.1s-0.3,0.2-0.4,0.3c-0.1,0.1-0.2,0.2-0.3,0.4c-0.1,0.2-0.1,0.3-0.1,0.5
	c0,0.3,0.1,0.6,0.3,0.8c0.2,0.2,0.4,0.3,0.7,0.3c0.2,0,0.3,0,0.4-0.1c0.1,0,0.2-0.1,0.3-0.1c0,0.1,0,0.2,0.1,0.3c0,0.1,0,0.2,0,0.2
	c0,0.3,0,0.5-0.1,0.7s-0.2,0.4-0.4,0.6c-0.2,0.2-0.4,0.4-0.6,0.5c-0.2,0.2-0.5,0.3-0.7,0.5L383.7,397.6z M409.3,385.7h-1.9v6.6
	c-0.3,0.1-0.6,0.2-0.9,0.2c-0.3,0.1-0.6,0.1-0.9,0.2c-0.3,0-0.6,0.1-1,0.1c-0.3,0-0.7,0-1.1,0c-0.6,0-1.1-0.1-1.5-0.3
	c-0.5-0.2-0.9-0.5-1.3-0.8s-0.7-0.8-1-1.2c-0.3-0.5-0.6-1-0.8-1.6c-0.2-0.6-0.4-1.2-0.5-1.9c-0.1-0.7-0.2-1.3-0.2-2
	c0-1,0.1-2,0.4-2.8c0.3-0.9,0.6-1.6,1.1-2.3c0.5-0.6,1-1.2,1.7-1.5c0.7-0.4,1.4-0.6,2.2-0.6c0.4,0,0.7,0,1.1,0.1
	c0.3,0.1,0.7,0.1,1,0.3c0.3,0.1,0.6,0.3,1,0.5c0.3,0.2,0.7,0.5,1.1,0.9l1.3-1.4c-0.4-0.4-0.9-0.7-1.2-1c-0.4-0.3-0.7-0.5-1.1-0.6
	c-0.4-0.2-0.8-0.3-1.2-0.3c-0.4-0.1-1-0.1-1.6-0.1c-0.8,0-1.6,0.1-2.3,0.3c-0.7,0.2-1.3,0.5-1.9,1c-0.6,0.4-1.1,0.9-1.5,1.5
	s-0.8,1.2-1.1,1.9c-0.3,0.7-0.5,1.4-0.7,2.2c-0.1,0.8-0.2,1.5-0.2,2.4c0,0.8,0.1,1.5,0.2,2.3s0.3,1.5,0.6,2.2c0.3,0.7,0.6,1.3,1,1.9
	s0.9,1.1,1.4,1.5s1.2,0.8,1.8,1c0.7,0.2,1.4,0.4,2.3,0.4c1.3,0,2.4-0.1,3.3-0.3c1-0.2,1.8-0.4,2.5-0.7L409.3,385.7L409.3,385.7z
	 M417.8,392.9c-0.6,0-1.2-0.1-1.7-0.4s-1-0.8-1.4-1.5c-0.5-0.7-0.7-1.7-0.7-2.9c0-1.5,0.3-2.6,1-3.5s1.6-1.4,2.8-1.4
	c1.2,0,2.1,0.5,2.8,1.4c0.6,0.9,1,2,1,3.1c0,1.3-0.2,2.4-0.7,3.1c-0.5,0.8-0.9,1.3-1.4,1.6C419,392.8,418.4,392.9,417.8,392.9
	 M421.9,392.5c1-1.2,1.5-2.7,1.5-4.4c0-1.8-0.5-3.3-1.4-4.5c-1-1.2-2.3-1.8-4.1-1.8c-1.7,0-3.1,0.6-4.2,1.7c-1,1.2-1.6,2.6-1.6,4.4
	c0,1.9,0.5,3.5,1.5,4.7s2.4,1.8,4.3,1.8C419.5,394.3,420.8,393.7,421.9,392.5z M426.6,392.1c0,0.4,0.1,0.8,0.2,1.1
	c0.1,0.3,0.3,0.5,0.4,0.7c0.2,0.2,0.4,0.3,0.6,0.4s0.4,0.1,0.7,0.1c0.2,0,0.3,0,0.5,0s0.4-0.1,0.5-0.1c0.2,0,0.4-0.1,0.5-0.2
	c0.2-0.1,0.3-0.1,0.4-0.2l-0.3-1c-0.1,0-0.2,0-0.4,0c-0.1,0-0.2,0-0.3,0c-0.2,0-0.4,0-0.5,0c-0.2,0-0.3-0.1-0.4-0.2
	s-0.2-0.2-0.2-0.4c-0.1-0.2-0.1-0.4-0.1-0.6v-15.1h-1.8v15.5H426.6z M431.4,382v1.5h1.6v10.7h1.8v-10.7h2.7l0.2-1.5h-2.9
	c0-1,0-1.7,0.1-2.3c0-0.6,0.2-1,0.4-1.2c0.3-0.4,1-0.7,1.9-0.7c0.1,0,0.2,0,0.4,0.1c0.1,0,0.3,0.1,0.4,0.1c0.1,0.1,0.3,0.1,0.4,0.2
	s0.3,0.1,0.4,0.2l0.8-1.5c-0.1-0.1-0.3-0.2-0.5-0.2c-0.2-0.1-0.4-0.1-0.6-0.2c-0.2,0-0.4-0.1-0.6-0.1s-0.4,0-0.6,0
	c-0.6,0-1.1,0.1-1.6,0.3c-0.5,0.2-0.9,0.5-1.3,0.8c-0.4,0.4-0.7,0.9-0.9,1.5c-0.2,0.6-0.3,1.3-0.3,2.1v0.9L431.4,382L431.4,382z
	 M459.6,379.8c0,0.4-0.1,0.7-0.2,1.1c-0.1,0.3-0.4,0.6-0.6,0.9c-0.3,0.3-0.6,0.5-0.9,0.8c-0.4,0.3-0.7,0.5-1.1,0.7
	c-0.2-0.3-0.4-0.5-0.6-0.8s-0.4-0.6-0.5-0.9c-0.2-0.3-0.3-0.6-0.4-0.9s-0.1-0.6-0.1-0.9c0-0.4,0.1-0.7,0.2-1s0.3-0.5,0.5-0.7
	s0.5-0.4,0.8-0.5s0.6-0.2,0.9-0.2s0.5,0,0.8,0.1c0.2,0.1,0.5,0.2,0.7,0.4c0.2,0.2,0.3,0.4,0.5,0.7
	C459.5,379,459.6,379.4,459.6,379.8 M460.6,391.9c-0.3,0.2-0.7,0.4-1,0.5c-0.4,0.1-0.7,0.2-1.1,0.3c-0.4,0.1-0.7,0.1-1.1,0.1
	c-0.7,0-1.2-0.1-1.7-0.3c-0.5-0.2-0.9-0.5-1.2-0.8c-0.3-0.3-0.6-0.7-0.7-1.2c-0.2-0.5-0.2-0.9-0.2-1.4s0.1-0.9,0.2-1.3
	c0.2-0.4,0.4-0.7,0.6-1s0.5-0.6,0.8-0.8c0.3-0.2,0.6-0.4,0.8-0.7c0.9,1,1.8,2,2.7,3c0.9,1,1.8,2,2.7,2.9
	C461.2,391.4,460.9,391.7,460.6,391.9z M467.1,394.1l-3.4-3.1c0.7-0.8,1.3-1.7,1.8-2.4c0.5-0.8,0.9-1.5,1.2-2.2h-2.1
	c-0.1,0.3-0.3,0.6-0.4,0.9s-0.3,0.6-0.4,0.8c-0.2,0.3-0.3,0.6-0.5,0.8c-0.2,0.3-0.4,0.6-0.6,0.9c-0.4-0.4-0.8-0.9-1.3-1.3
	c-0.4-0.5-0.9-0.9-1.3-1.4s-0.9-1-1.3-1.4c-0.4-0.5-0.8-0.9-1.2-1.4c0.5-0.3,1-0.6,1.4-0.9c0.5-0.3,0.9-0.7,1.3-1
	c0.4-0.4,0.7-0.8,0.9-1.3c0.2-0.5,0.3-1,0.3-1.7c0-0.6-0.1-1.1-0.3-1.5c-0.2-0.4-0.5-0.8-0.8-1.1c-0.4-0.3-0.8-0.5-1.2-0.6
	c-0.5-0.1-1-0.2-1.5-0.2s-1,0.1-1.6,0.3c-0.5,0.2-1,0.4-1.4,0.8c-0.4,0.3-0.8,0.8-1,1.2c-0.3,0.5-0.4,1.1-0.4,1.7
	c0,0.4,0.1,0.8,0.2,1.2c0.1,0.4,0.3,0.7,0.4,1.1c0.2,0.3,0.4,0.7,0.6,1s0.5,0.6,0.7,0.9c-0.5,0.3-0.9,0.6-1.4,0.9
	c-0.4,0.3-0.8,0.7-1.2,1.1c-0.3,0.4-0.6,0.9-0.8,1.5c-0.2,0.5-0.3,1.2-0.3,1.9c0,0.8,0.1,1.4,0.4,2s0.7,1.1,1.1,1.5
	c0.5,0.4,1.1,0.7,1.7,1c0.7,0.2,1.4,0.3,2.2,0.3c0.6,0,1.1-0.1,1.7-0.2c0.5-0.1,1-0.2,1.5-0.4c0.5-0.2,0.9-0.4,1.3-0.7
	c0.4-0.3,0.8-0.5,1.1-0.8l1.6,1.7h3V394.1z M478.4,391.5c-0.4-0.3-0.8-0.6-1.2-1l-1.5,1.4c0.4,0.4,0.8,0.8,1.3,1.1
	c0.4,0.3,0.9,0.6,1.4,0.8c0.5,0.2,1,0.4,1.6,0.4c0.6,0.1,1.2,0.1,1.8,0.1c0.7,0,1.4-0.1,2.1-0.3c0.7-0.2,1.3-0.5,1.9-0.9
	c0.5-0.4,1-0.9,1.3-1.5s0.5-1.3,0.5-2.2c0-0.5-0.1-1-0.2-1.4s-0.3-0.8-0.5-1.1c-0.2-0.3-0.4-0.6-0.7-0.8c-0.3-0.2-0.6-0.5-0.9-0.6
	c-0.3-0.2-0.7-0.4-1-0.5c-0.4-0.2-0.7-0.3-1.1-0.5c-0.6-0.2-1.1-0.5-1.7-0.7c-0.4-0.2-0.8-0.3-1.2-0.5c-0.4-0.2-0.8-0.4-1.1-0.7
	c-0.3-0.3-0.6-0.6-0.9-0.9c-0.2-0.3-0.3-0.8-0.3-1.2c0-0.5,0.1-0.9,0.3-1.3c0.2-0.3,0.5-0.6,0.9-0.8c0.4-0.2,0.7-0.4,1.2-0.5
	c0.4-0.1,0.8-0.1,1.3-0.1c0.4,0,0.7,0,1.1,0.1c0.3,0.1,0.7,0.2,1,0.4c0.3,0.2,0.6,0.4,1,0.6c0.3,0.2,0.7,0.5,1,0.8l1.1-1.5
	c-0.4-0.4-0.8-0.7-1.2-1c-0.4-0.3-0.8-0.5-1.2-0.6c-0.4-0.2-0.9-0.3-1.3-0.3c-0.5-0.1-1-0.1-1.5-0.1c-0.7,0-1.4,0.1-2,0.3
	c-0.7,0.2-1.2,0.5-1.8,0.8c-0.5,0.4-0.9,0.8-1.2,1.4c-0.3,0.6-0.5,1.2-0.5,1.9c0,0.5,0.1,1,0.2,1.5c0.2,0.4,0.4,0.8,0.6,1.2
	c0.3,0.3,0.6,0.6,0.9,0.9s0.7,0.5,1,0.7c0.4,0.2,1,0.5,2,0.9c0.3,0.1,0.6,0.3,1,0.4c0.6,0.2,1.1,0.5,1.6,0.7s0.9,0.4,1.2,0.7
	c0.3,0.3,0.6,0.6,0.8,0.9c0.2,0.4,0.3,0.8,0.3,1.3s-0.1,1-0.3,1.4c-0.2,0.4-0.5,0.7-0.8,1c-0.3,0.2-0.8,0.4-1.2,0.5
	c-0.5,0.1-0.9,0.2-1.5,0.2c-0.5,0-0.9,0-1.3-0.1s-0.7-0.2-1.1-0.4C479.1,392,478.7,391.8,478.4,391.5 M495.3,383.3
	c0.6,0,1.1,0.1,1.5,0.4c0.4,0.2,0.8,0.6,1,1c0.3,0.4,0.5,0.9,0.6,1.5s0.2,1.2,0.2,1.8c0,0.6-0.1,1.2-0.2,1.8
	c-0.1,0.6-0.3,1.1-0.6,1.6c-0.3,0.5-0.6,0.8-1,1.1c-0.4,0.3-0.9,0.4-1.4,0.4c-0.3,0-0.6,0-0.9,0s-0.6-0.1-0.9-0.1
	c-0.3-0.1-0.6-0.2-0.8-0.3c-0.3-0.1-0.6-0.3-0.8-0.6v-7.6c0.6-0.3,1.1-0.5,1.6-0.7C494.2,383.4,494.7,383.3,495.3,383.3 M490.2,382
	c0,0.1,0,0.2,0,0.4c0,0.2,0,0.3,0,0.5s0,0.3,0,0.5s0,0.3,0,0.3v15.5h1.8v-5.9c0.3,0.2,0.6,0.3,0.9,0.5c0.3,0.1,0.6,0.2,0.8,0.3
	c0.3,0.1,0.5,0.1,0.8,0.2c0.3,0,0.6,0.1,0.9,0.1c0.8,0,1.5-0.2,2.1-0.5c0.6-0.4,1.1-0.8,1.5-1.4s0.7-1.3,1-2
	c0.2-0.8,0.3-1.6,0.3-2.4s-0.1-1.6-0.3-2.4c-0.2-0.7-0.4-1.4-0.8-2s-0.9-1-1.5-1.4c-0.6-0.3-1.3-0.5-2.2-0.5c-0.3,0-0.6,0-0.9,0.1
	s-0.6,0.1-0.9,0.2s-0.6,0.2-0.9,0.3c-0.3,0.1-0.6,0.3-0.9,0.4c0-0.1,0-0.3-0.1-0.4c0-0.1,0-0.3-0.1-0.4L490.2,382L490.2,382z
	 M510.8,391.3c-0.5,0.4-1.1,0.8-1.8,1.1c-0.7,0.3-1.3,0.5-2,0.5c-0.6,0-1.1-0.2-1.5-0.5s-0.6-0.8-0.6-1.4s0.1-1,0.4-1.4
	s0.7-0.6,1.2-0.9c0.5-0.2,1.1-0.4,1.8-0.5c0.7-0.1,1.5-0.2,2.4-0.3v3.4H510.8z M504.7,384.8c1-0.7,1.7-1.2,2.2-1.3
	c0.5-0.2,1.1-0.2,1.7-0.2c0.7,0,1.2,0.2,1.6,0.6s0.6,0.9,0.6,1.4v1.5c-0.7,0.1-1.3,0.2-2,0.2c-0.6,0.1-1.3,0.2-1.8,0.4
	c-0.6,0.1-1.1,0.3-1.6,0.5s-0.9,0.5-1.3,0.8s-0.6,0.7-0.8,1.1c-0.2,0.4-0.3,1-0.3,1.5s0.1,0.9,0.2,1.3c0.2,0.4,0.4,0.7,0.7,1
	c0.3,0.3,0.6,0.5,1.1,0.6c0.4,0.1,0.9,0.2,1.4,0.2c0.9,0,1.8-0.2,2.5-0.5s1.4-0.7,1.9-1.1c0.1,0.6,0.3,1,0.5,1.3
	c0.3,0.3,0.6,0.4,1,0.4c0.5,0,0.9-0.1,1.3-0.2c0.4-0.1,0.7-0.3,0.9-0.5l-0.3-0.8c-0.3,0.1-0.6,0.1-0.8,0.1c-0.4,0-0.6-0.1-0.8-0.3
	c-0.2-0.2-0.2-0.6-0.2-1.2v-6.1c0-0.5-0.1-1-0.2-1.4c-0.1-0.4-0.3-0.8-0.6-1.1c-0.3-0.3-0.7-0.5-1.3-0.7c-0.5-0.2-1.2-0.3-2-0.3
	s-1.5,0.1-2.2,0.3c-0.7,0.2-1.5,0.7-2.5,1.4L504.7,384.8z M524.1,394.1h1.9v-8.3h8.7v8.3h1.9v-17.6h-1.9v7.9H526v-7.9h-1.9V394.1z
	 M545.6,392.9c-0.6,0-1.2-0.1-1.7-0.4s-1-0.8-1.4-1.5c-0.5-0.7-0.7-1.7-0.7-2.9c0-1.5,0.3-2.6,1-3.5s1.6-1.4,2.8-1.4
	s2.1,0.5,2.8,1.4c0.6,0.9,1,2,1,3.1c0,1.3-0.2,2.4-0.7,3.1c-0.5,0.8-0.9,1.3-1.4,1.6C546.8,392.8,546.3,392.9,545.6,392.9
	 M549.7,392.5c1-1.2,1.5-2.7,1.5-4.4c0-1.8-0.5-3.3-1.4-4.5c-1-1.2-2.3-1.8-4.1-1.8c-1.7,0-3.1,0.6-4.2,1.7c-1,1.2-1.6,2.6-1.6,4.4
	c0,1.9,0.5,3.5,1.5,4.7s2.4,1.8,4.3,1.8C547.4,394.3,548.7,393.7,549.7,392.5z M553.5,383.5h1.8v7.5c0,0.5,0,1,0.1,1.4
	s0.3,0.8,0.5,1.1c0.2,0.3,0.5,0.5,0.9,0.7c0.4,0.1,0.9,0.2,1.5,0.2c0.1,0,0.2,0,0.4,0s0.4,0,0.6-0.1c0.2,0,0.4,0,0.6-0.1
	c0.2,0,0.4-0.1,0.5-0.1l-0.1-1.5c-0.1,0-0.3,0.1-0.4,0.1c-0.2,0-0.3,0.1-0.5,0.1s-0.3,0.1-0.5,0.1c-0.1,0-0.3,0-0.4,0
	c-0.3,0-0.5-0.1-0.7-0.2s-0.3-0.3-0.4-0.5c-0.1-0.2-0.2-0.5-0.2-0.7c0-0.3-0.1-0.6-0.1-0.9v-7h2.8l0.2-1.5h-3V379h-1.8v3.1h-1.8
	L553.5,383.5L553.5,383.5z M567.7,383.1c0.6,0,1,0.1,1.4,0.3c0.4,0.2,0.7,0.5,0.9,0.8s0.4,0.7,0.5,1.2c0.1,0.4,0.2,0.9,0.2,1.3h-6.3
	c0-0.4,0.1-0.9,0.3-1.3c0.1-0.4,0.4-0.8,0.6-1.2c0.3-0.3,0.6-0.6,1-0.8C566.7,383.2,567.2,383.1,567.7,383.1 M571.5,390.9
	c-0.3,0.4-0.6,0.7-0.9,0.9c-0.3,0.2-0.6,0.4-0.9,0.6c-0.3,0.1-0.6,0.2-1,0.3c-0.3,0.1-0.7,0.1-1,0.1c-0.5,0-1-0.1-1.4-0.4
	s-0.8-0.6-1-1.1c-0.3-0.4-0.5-1-0.7-1.6s-0.2-1.2-0.2-1.9h8.1c0-0.6,0-1.1,0-1.7c-0.1-0.7-0.2-1.3-0.4-1.9s-0.5-1-0.9-1.4
	s-0.9-0.7-1.4-0.9c-0.6-0.2-1.3-0.3-2.1-0.3c-0.9,0-1.7,0.2-2.3,0.5s-1.2,0.8-1.6,1.4c-0.4,0.6-0.7,1.2-0.9,2
	c-0.2,0.7-0.3,1.5-0.3,2.3s0.1,1.7,0.3,2.4c0.2,0.8,0.5,1.5,1,2.1c0.4,0.6,1,1.1,1.6,1.4c0.7,0.4,1.5,0.5,2.4,0.5
	c0.5,0,0.9,0,1.3-0.1c0.4-0.1,0.8-0.2,1.2-0.4c0.4-0.2,0.8-0.4,1.2-0.7c0.4-0.3,0.8-0.7,1.2-1.2L571.5,390.9z M575.9,392.1
	c0,0.4,0.1,0.8,0.2,1.1c0.1,0.3,0.3,0.5,0.4,0.7c0.2,0.2,0.4,0.3,0.6,0.4c0.2,0.1,0.4,0.1,0.7,0.1c0.2,0,0.3,0,0.5,0
	s0.4-0.1,0.5-0.1c0.2,0,0.4-0.1,0.5-0.2c0.2-0.1,0.3-0.1,0.5-0.2l-0.3-1c-0.1,0-0.2,0-0.4,0c-0.1,0-0.2,0-0.3,0c-0.2,0-0.4,0-0.5,0
	c-0.2,0-0.3-0.1-0.4-0.2c-0.1-0.1-0.2-0.2-0.2-0.4c-0.1-0.2-0.1-0.4-0.1-0.6v-15.1h-1.8L575.9,392.1L575.9,392.1z"/>
</svg>
